<svg width="59" height="59" viewBox="0 0 59 59" fill="none" xmlns="http://www.w3.org/2000/svg">
<path fill-rule="evenodd" clip-rule="evenodd" d="M6.06164 6.06164H52.9384V26.8733H6.06164V6.06164ZM6.06164 32.9349V52.9384H52.9384V32.9349H6.06164ZM59 59H0V0H59V59Z" fill="black"/>
<path fill-rule="evenodd" clip-rule="evenodd" d="M27.0753 24.2466L10.5068 24.2466L10.5068 18.1849L27.0753 18.1849V24.2466Z" fill="black"/>
<path d="M34.4715 8.52413H40.2892C42.1381 8.52413 43.7507 8.8091 45.1269 9.37906C46.5031 9.93511 47.5944 10.8179 48.4007 12.0273C49.207 13.2367 49.6101 14.7658 49.6101 16.6147C49.6101 18.1161 49.2765 19.4437 48.6092 20.5975C47.9558 21.7513 47.0314 22.6479 45.8359 23.2874C44.6404 23.9268 43.2641 24.2466 41.7072 24.2466H34.4715V8.52413ZM40.185 19.534H40.5395C41.6238 19.534 42.4509 19.2768 43.0208 18.7625C43.6047 18.2342 43.8966 17.5114 43.8966 16.5939C43.8966 15.4818 43.5978 14.6824 43 14.1959C42.4022 13.6954 41.5821 13.4452 40.5395 13.4452H40.185V19.534Z" fill="black"/>
<path d="M11.3122 35.1575H16.7962L21.9259 43.8737H22.0927L21.7799 41.997C21.6687 41.2463 21.6131 40.5374 21.6131 39.8701V35.1575H27.0763V50.88H21.6131L16.5877 42.6226H16.4209C16.5182 43.1647 16.6016 43.693 16.6711 44.2073C16.7406 44.7217 16.7754 45.243 16.7754 45.7712V50.88H11.3122V35.1575Z" fill="black"/>
<path d="M34.0674 35.1575H39.8851C41.734 35.1575 43.3466 35.4425 44.7228 36.0125C46.099 36.5685 47.1903 37.4513 47.9966 38.6607C48.8028 39.8701 49.206 41.3992 49.206 43.2481C49.206 44.7495 48.8724 46.0771 48.2051 47.2309C47.5517 48.3847 46.6273 49.2813 45.4318 49.9208C44.2362 50.5603 42.86 50.88 41.3031 50.88H34.0674V35.1575ZM39.7809 46.1674H40.1353C41.2197 46.1674 42.0468 45.9102 42.6167 45.3959C43.2006 44.8676 43.4925 44.1448 43.4925 43.2273C43.4925 42.1152 43.1936 41.3158 42.5959 40.8293C41.9981 40.3288 41.1779 40.0786 40.1353 40.0786H39.7809V46.1674Z" fill="black"/>
</svg>
